# xmcd
#
# Track frame offsets: 
#        150
#        50157
#        51619
#        63904
#        72511
#        73553
#        92956
#        111994
#        121584
#        122340
#        124534
#        135104
#        140139
#        162511
#        167966
#        176083
#        182390
#        192704
#        200078
#        203208
#        203667
#        212925
#        225826
#        227448
#        232953
#        251423
#        261868
#        263647
#        274610
#        284828
#        286645
#        300069
#        302784
#        318595
#        338434
#        353509
#
# Disc length: 4746 seconds
#
# Revision: 0
# Processed by: cddbd v1.5.2PL0 Copyright (c) Steve Scherf et al.
# Submitted via: ExactAudioCopy v0.95b3
#
DISCID=1a128824
DTITLE=The Beatles  - The Beatles Deluxe - Disc 06 - sessions  PC-136 
DTITLE=FLAC
DYEAR=1900
DGENRE=
TTITLE0=Revolution - take 20 (composite)
TTITLE1=Don't Pass Me By - take 3
TTITLE2=Don't Pass Me By - takes 3+5
TTITLE3=Blackbird-Congratulations - rehearsal a
TTITLE4=Blackbird - rehearsal b
TTITLE5=Blackbird - rehearsal c
TTITLE6=Helter Skelter-Blackbird-Gone Tomorrow Here Today rehearsal d
TTITLE7=Blackbird - rehearsal e
TTITLE8=Tuning
TTITLE9=Blackbird - rehearsal f
TTITLE10=Blackbird - rehearsal g
TTITLE11=Blackbird - rehearsal h
TTITLE12=Blackbird-Mother Natures Son - rehearsal i
TTITLE13=Blackbird - rehearsal j
TTITLE14=Blackbird - rehearsal k
TTITLE15=Blackbird - rehearsal l
TTITLE16=Blackbird - rehearsal m
TTITLE17=Blackbird - rehearsal n
TTITLE18=Blackbird - rehearsal o
TTITLE19=Blackbird - rehearsal p
TTITLE20=Blackbird - rehearsal q
TTITLE21=Blackbird - rehearsal r
TTITLE22=Dialogue
TTITLE23=Dialogue
TTITLE24=Blackbird - rehearsal s
TTITLE25=Blackbird - take 4
TTITLE26=Blackbird - take unknown
TTITLE27=Blackbird - take 32 RM6
TTITLE28=Good Night - rehearsal
TTITLE29=Good Night - unknown take
TTITLE30=Ob-La-Di Ob-La-Da - take 5
TTITLE31=Ob-La-Di Ob-La-Da - take 21
TTITLE32=Revolution - take 15
TTITLE33=Don't Pass Me By - RM4
TTITLE34=Ob-La-Di Ob-La-Da - take 23 RM21
TTITLE35=Ob-La-Di Ob-La-Da - studio talk
EXTD=
EXTT0=
EXTT1=
EXTT2=
EXTT3=
EXTT4=
EXTT5=
EXTT6=
EXTT7=
EXTT8=
EXTT9=
EXTT10=
EXTT11=
EXTT12=
EXTT13=
EXTT14=
EXTT15=
EXTT16=
EXTT17=
EXTT18=
EXTT19=
EXTT20=
EXTT21=
EXTT22=
EXTT23=
EXTT24=
EXTT25=
EXTT26=
EXTT27=
EXTT28=
EXTT29=
EXTT30=
EXTT31=
EXTT32=
EXTT33=
EXTT34=
EXTT35=
PLAYORDER=
